<?xml version="1.0" standalone="no"?>
<!DOCTYPE svg PUBLIC "-//W3C//DTD SVG 20010904//EN"
 "http://www.w3.org/TR/2001/REC-SVG-20010904/DTD/svg10.dtd">
<svg version="1.0" xmlns="http://www.w3.org/2000/svg"
 width="110.000000pt" height="110.000000pt" viewBox="0 0 110.000000 110.000000"
 preserveAspectRatio="xMidYMid meet">
<metadata>
Created by potrace 1.14, written by Peter Selinger 2001-2017
</metadata>
<g transform="translate(0.000000,110.000000) scale(0.100000,-0.100000)"
fill="#000000" stroke="none">
<path d="M288 902 c-15 -3 -24 -24 -34 -79 -4 -25 -5 -29 -28 -146 -12 -58
-13 -82 -5 -95 15 -22 175 -152 187 -152 8 0 18 40 37 145 3 17 18 95 34 175
17 79 29 146 27 147 -4 4 -199 9 -218 5z"/>
<path d="M672 594 c-59 -40 -139 -95 -179 -121 -40 -26 -72 -51 -73 -55 0 -3
46 -44 103 -91 56 -47 113 -95 127 -107 57 -51 64 -53 210 -54 90 -1 140 2
139 9 0 5 -63 62 -140 125 -76 63 -139 117 -139 121 0 4 30 26 66 50 37 24 72
48 78 54 7 5 19 15 28 20 48 29 167 111 168 115 0 3 -63 6 -141 6 l-141 1
-106 -73z"/>
<path d="M376 393 c-16 -9 -39 -24 -50 -34 -11 -11 -24 -19 -29 -19 -4 0 -14
-6 -22 -12 -7 -7 -59 -44 -116 -83 l-103 -70 144 -3 c79 -1 149 -1 156 2 6 2
15 24 19 48 4 23 9 52 11 63 2 11 9 42 14 69 6 27 9 50 8 52 -2 1 -16 -5 -32
-13z"/>
</g>
</svg>
